<?xml version="1.0" encoding="utf-8"?>
<!-- Generator: Adobe Illustrator 17.0.0, SVG Export Plug-In . SVG Version: 6.00 Build 0)  -->
<!DOCTYPE svg PUBLIC "-//W3C//DTD SVG 1.1//EN" "http://www.w3.org/Graphics/SVG/1.1/DTD/svg11.dtd">
<svg version="1.1" id="Layer_1" xmlns="http://www.w3.org/2000/svg" xmlns:xlink="http://www.w3.org/1999/xlink" x="0px" y="0px"
	 width="140px" height="39px" viewBox="0 0 140 39" enable-background="new 0 0 140 39" xml:space="preserve">
<path fill="#FFFFFF" d="M51.574,27.098c0,0,1.862,1.687,5.131,1.687c3.218,0,5.256-2.183,5.256-5.012
	c0-5.085-7.217-5.061-7.217-7.938c0-1.141,1.106-1.886,2.037-1.886c2.464,0,4.124,1.364,4.124,1.364l0.629-2.481
	c-0.88-0.546-2.515-1.24-4.677-1.24c-3.144,0-5.105,2.208-5.105,4.888c0,4.863,7.143,5.011,7.143,7.839
	c0,1.117-0.981,2.06-2.363,2.06c-2.641,0-4.702-2.06-4.702-2.06L51.574,27.098L51.574,27.098z M76.094,21.913
	c0-4.392-2.49-6.351-5.784-6.351c-4.275,0-6.665,3.101-6.665,6.798c0,3.126,1.987,6.425,5.81,6.425
	C73.655,28.786,76.094,25.609,76.094,21.913L76.094,21.913z M66.965,22.161c0-2.481,1.081-4.392,2.892-4.392
	c1.81,0,2.892,1.91,2.892,4.392c0,2.481-1.081,4.416-2.892,4.416C68.047,26.576,66.965,24.641,66.965,22.161L66.965,22.161z
	 M77.578,18.241h1.535v10.221h3.395l-0.277-2.828v-7.393h2.339l0.83-2.306h-3.169v-1.936c0-1.339,0.553-1.835,1.282-1.835
	c0.403,0,1.106,0.075,2.012,0.794l1.056-2.506c-1.081-0.62-2.213-0.944-3.319-0.944c-2.213,0-4.149,1.34-4.149,4.937v1.488h-1.535
	L77.578,18.241L77.578,18.241z M90.982,13.353l-3.37,0.373v2.208h-1.535v2.306h1.535v6.525c0,2.903,1.081,4.019,3.218,4.019
	c2.742,0,4.15-1.266,4.15-1.266l-0.327-2.704c-0.578,0.496-1.962,1.166-2.892,1.166c-0.604,0-1.056-0.249-1.056-1.142v-6.6h2.967
	l0.805-2.306h-3.748L90.982,13.353L90.982,13.353z M100.137,9.608L96.666,9.98l0.352,2.506v15.977h3.395l-0.277-2.133V9.608
	L100.137,9.608z M109.064,15.562c-4.2,0-5.986,3.324-5.986,6.946c0,3.201,1.987,6.277,5.734,6.277c3.269,0,5.281-1.762,5.281-1.762
	l-0.452-2.531c0,0-2.037,1.762-4.225,1.762c-1.987,0-3.017-1.588-3.144-3.597h6.966l0.604-0.595
	C113.793,20.202,113.466,15.562,109.064,15.562L109.064,15.562z M108.762,17.67c1.333,0,1.761,1.613,1.835,2.803h-4.2
	C106.676,18.911,107.379,17.67,108.762,17.67L108.762,17.67z M114.723,28.462h3.319l2.515-3.646l0.327-0.669l0.352,0.645
	l2.238,3.672h3.571l-4.35-6.5l4.954-6.376l-3.697,0.446l-2.414,3.399l-0.352,0.671l-0.302-0.671l-2.363-3.845l-3.621,0.446
	l1.837,2.109l2.69,4.068L114.723,28.462L114.723,28.462z"/>
<path fill="#FFFFFF" d="M20.561,0.294c3.799-0.114,7.995,3.515,11.907,7.314c3.856,3.912,7.428,8.108,7.314,11.964
	c0.114,3.799-3.458,7.995-7.314,11.907c-3.912,3.856-8.108,7.428-11.907,7.314c-3.856,0.114-8.051-3.458-11.964-7.314
	c-3.799-3.912-7.428-8.108-7.314-11.907c-0.114-3.856,3.515-8.052,7.314-11.965C12.509,3.81,16.704,0.181,20.561,0.294L20.561,0.294
	z M28.668,22.521c0.114-3.458-1.815-5.556-4.025-7.314c-1.417-1.134-3.119-2.495-4.422-3.515c-1.077-0.907-1.474-1.645-1.474-2.381
	c0-0.793,0.85-1.531,2.155-1.531c1.531,0,2.836,0.738,3.232,1.077c0.397,0.283,0.624,0.227,0.85,0.114
	c0.283-0.283,1.021-0.907,1.077-1.701c0-0.397-0.114-0.624-0.51-1.021c-0.624-0.51-1.758-1.021-2.836-1.021
	c-2.438,0.567-4.139,1.871-5.954,3.742c-1.701,1.815-3.289,4.479-3.289,7.597c0,2.438,1.248,4.649,2.665,6.067
	c1.191,1.248,2.948,2.779,4.366,4.253c1.815,1.588,2.381,2.325,2.381,3.232c0,0.964-1.021,1.701-2.212,1.701
	c-1.701,0-2.891-0.738-3.289-1.077c-0.34-0.227-0.681-0.114-0.964,0.057c-0.34,0.227-1.191,1.303-1.191,1.758
	c0,0.397,0.283,0.793,0.738,1.191c0.793,0.624,2.098,0.907,2.836,0.907c2.212-0.624,4.082-1.815,5.897-3.912
	C26.513,28.644,28.611,25.526,28.668,22.521L28.668,22.521z M15.741,14.186c0-1.36,0.453-2.325,1.021-3.175l0.057,0.114
	c-0.057,1.701,0.964,3.005,1.758,3.856c1.191,1.191,3.119,2.836,4.139,3.629c2.836,2.212,3.515,4.139,3.458,5.897
	c0,1.134-0.283,2.381-1.134,3.742h-0.057c-0.114-1.191-0.397-2.155-0.964-3.005c-0.793-1.191-2.779-3.005-4.82-4.877
	C16.534,17.871,15.741,16.113,15.741,14.186L15.741,14.186z"/>
<path fill="#FFFFFF" d="M43.183,16.737c-1.531-5.273-3.289-10.433-6.69-12.247c-1.531-0.964-3.515-1.248-5.784-1.134
	c1.077,0.964,2.155,1.927,3.119,2.891c0,0,0,0,0.057,0c1.758,1.815,3.742,3.969,5.216,6.18c1.758,2.551,2.608,4.82,2.608,6.918
	c0,0,0,0.114,0,0.227c0,0.057,0,0.171,0,0.171c0,2.098-0.85,4.366-2.608,6.918c-1.474,2.212-3.458,4.366-5.216,6.18
	c-0.057,0-0.057,0-0.057,0.057c-1.815,1.758-3.969,3.742-6.18,5.216l-0.283,0.227c1.305-0.283,2.551-0.567,3.856-0.907
	c5.273-1.474,10.49-3.289,12.304-6.69C45.564,27.51,44.544,22.067,43.183,16.737z"/>
<g>
	<path fill="#FFFFFF" d="M131.538,6.161c0.111-0.01,0.212-0.02,0.303-0.03c0.09-0.01,0.181-0.019,0.269-0.027
		c0.087-0.008,0.181-0.014,0.277-0.019c0.096-0.005,0.202-0.008,0.318-0.008c0.258,0,0.513,0.027,0.765,0.076
		c0.251,0.051,0.477,0.139,0.673,0.265c0.197,0.126,0.357,0.297,0.482,0.512c0.124,0.215,0.184,0.486,0.184,0.815
		c0,0.197-0.033,0.376-0.099,0.538c-0.066,0.162-0.149,0.306-0.249,0.432c-0.101,0.126-0.217,0.236-0.345,0.33
		c-0.129,0.093-0.254,0.171-0.375,0.231l-0.091,0.045l1.584,2.296c-0.135,0.015-0.289,0.023-0.462,0.023
		c-0.135,0-0.273-0.008-0.408-0.023l-1.743-2.524V9.063l0.061-0.015c0.135-0.035,0.28-0.083,0.432-0.144
		c0.152-0.061,0.291-0.14,0.421-0.239c0.129-0.099,0.236-0.217,0.322-0.356s0.129-0.307,0.129-0.504
		c0-0.364-0.107-0.634-0.322-0.811s-0.503-0.265-0.868-0.265c-0.086,0-0.165,0.003-0.239,0.008s-0.155,0.013-0.245,0.023v4.858
		c-0.056,0.005-0.119,0.01-0.186,0.015c-0.068,0.005-0.131,0.008-0.193,0.008c-0.061,0-0.126-0.001-0.196-0.004
		c-0.072-0.003-0.136-0.009-0.197-0.019V6.161H131.538z"/>
</g>
<g>
	<path fill="#FFFFFF" d="M133.2,14.102c-2.938,0-5.329-2.287-5.329-5.098s2.391-5.098,5.329-5.098s5.329,2.287,5.329,5.098
		S136.139,14.102,133.2,14.102z M133.2,4.855c-2.416,0-4.382,1.862-4.382,4.15s1.965,4.15,4.382,4.15s4.382-1.862,4.382-4.15
		S135.616,4.855,133.2,4.855z"/>
</g>
</svg>
