<?xml version="1.0" encoding="utf-8"?>
<!-- Generator: Adobe Illustrator 17.0.0, SVG Export Plug-In . SVG Version: 6.00 Build 0)  -->
<!DOCTYPE svg PUBLIC "-//W3C//DTD SVG 1.1//EN" "http://www.w3.org/Graphics/SVG/1.1/DTD/svg11.dtd">
<svg version="1.1" id="Layer_1" xmlns="http://www.w3.org/2000/svg" xmlns:xlink="http://www.w3.org/1999/xlink" x="0px" y="0px"
	 width="111px" height="31px" viewBox="0 0 111 31" enable-background="new 0 0 111 31" xml:space="preserve">
<path fill="#646464" d="M41.236,21.481c0,0,1.474,1.336,4.062,1.336c2.548,0,4.161-1.728,4.161-3.968
	c0-4.026-5.714-4.007-5.714-6.285c0-0.903,0.876-1.493,1.613-1.493c1.951,0,3.265,1.08,3.265,1.08l0.498-1.964
	c-0.697-0.432-1.991-0.982-3.703-0.982c-2.489,0-4.042,1.748-4.042,3.87c0,3.85,5.655,3.967,5.655,6.206
	c0,0.884-0.777,1.631-1.871,1.631c-2.091,0-3.723-1.631-3.723-1.631L41.236,21.481L41.236,21.481z M60.649,17.376
	c0-3.477-1.971-5.028-4.579-5.028c-3.385,0-5.277,2.455-5.277,5.382c0,2.475,1.573,5.087,4.6,5.087
	C58.718,22.817,60.649,20.302,60.649,17.376L60.649,17.376z M53.421,17.572c0-1.964,0.856-3.477,2.29-3.477
	c1.433,0,2.29,1.512,2.29,3.477c0,1.964-0.856,3.496-2.29,3.496C54.278,21.068,53.421,19.536,53.421,17.572L53.421,17.572z
	 M61.824,14.469h1.215v8.092h2.688l-0.219-2.239v-5.853h1.852l0.657-1.826h-2.509V11.11c0-1.06,0.438-1.453,1.015-1.453
	c0.319,0,0.876,0.059,1.593,0.629l0.836-1.984c-0.856-0.491-1.752-0.747-2.628-0.747c-1.752,0-3.285,1.061-3.285,3.909v1.178h-1.215
	V14.469L61.824,14.469z M72.436,10.599l-2.668,0.295v1.748h-1.215v1.826h1.215v5.166c0,2.298,0.856,3.182,2.548,3.182
	c2.171,0,3.286-1.002,3.286-1.002l-0.259-2.141c-0.458,0.393-1.553,0.923-2.29,0.923c-0.478,0-0.836-0.197-0.836-0.904v-5.225h2.349
	l0.637-1.826h-2.967L72.436,10.599L72.436,10.599z M79.684,7.634l-2.748,0.294l0.279,1.984v12.649h2.688l-0.219-1.689V7.634
	L79.684,7.634z M86.752,12.348c-3.325,0-4.739,2.632-4.739,5.499c0,2.534,1.573,4.97,4.54,4.97c2.588,0,4.181-1.395,4.181-1.395
	l-0.358-2.004c0,0-1.613,1.395-3.345,1.395c-1.573,0-2.389-1.257-2.489-2.848h5.515l0.478-0.471
	C90.496,16.021,90.237,12.348,86.752,12.348L86.752,12.348z M86.513,14.017c1.055,0,1.394,1.277,1.453,2.219h-3.325
	C84.861,14.999,85.418,14.017,86.513,14.017L86.513,14.017z M91.232,22.561h2.628l1.991-2.887l0.259-0.53l0.279,0.511l1.772,2.907
	h2.827l-3.444-5.146l3.922-5.048l-2.927,0.353l-1.911,2.691l-0.279,0.531l-0.239-0.531l-1.871-3.044l-2.867,0.353l1.454,1.67
	l2.13,3.221L91.232,22.561L91.232,22.561z"/>
<path fill-rule="evenodd" clip-rule="evenodd" fill="#26BC9C" d="M16.682,0.26c3.008-0.09,6.33,2.783,9.427,5.791
	c3.053,3.097,5.881,6.419,5.791,9.472c0.09,3.008-2.738,6.33-5.791,9.427c-3.097,3.053-6.419,5.881-9.427,5.791
	c-3.053,0.09-6.374-2.738-9.472-5.791c-3.008-3.097-5.881-6.419-5.791-9.427C1.329,12.47,4.202,9.148,7.21,6.05
	C10.307,3.043,13.629,0.17,16.682,0.26L16.682,0.26z M23.101,17.857c0.09-2.738-1.437-4.399-3.187-5.791
	c-1.122-0.898-2.469-1.975-3.501-2.783c-0.853-0.718-1.167-1.302-1.167-1.885c0-0.628,0.673-1.212,1.706-1.212
	c1.212,0,2.245,0.584,2.559,0.853c0.314,0.224,0.494,0.18,0.673,0.09c0.224-0.224,0.808-0.718,0.853-1.347
	c0-0.314-0.09-0.494-0.404-0.808c-0.494-0.404-1.392-0.808-2.245-0.808c-1.93,0.449-3.277,1.481-4.714,2.963
	c-1.347,1.437-2.604,3.546-2.604,6.015c0,1.93,0.988,3.681,2.11,4.803c0.943,0.988,2.334,2.2,3.457,3.367
	c1.437,1.257,1.885,1.841,1.885,2.559c0,0.763-0.808,1.347-1.751,1.347c-1.347,0-2.289-0.584-2.604-0.853
	c-0.269-0.18-0.539-0.09-0.763,0.045c-0.269,0.18-0.943,1.032-0.943,1.392c0,0.314,0.224,0.628,0.584,0.943
	c0.628,0.494,1.661,0.718,2.245,0.718c1.751-0.494,3.232-1.437,4.669-3.097C21.395,22.705,23.056,20.236,23.101,17.857
	L23.101,17.857z M12.866,11.258c0-1.077,0.359-1.841,0.808-2.514l0.045,0.09c-0.045,1.347,0.763,2.379,1.392,3.053
	c0.943,0.943,2.469,2.245,3.277,2.873c2.245,1.751,2.783,3.277,2.738,4.669c0,0.898-0.224,1.885-0.898,2.963h-0.045
	c-0.09-0.943-0.314-1.706-0.763-2.379c-0.628-0.943-2.2-2.379-3.816-3.861C13.494,14.176,12.866,12.784,12.866,11.258L12.866,11.258
	z"/>
<path fill="#26BC9C" d="M34.593,13.278c-1.212-4.175-2.604-8.26-5.297-9.696c-1.212-0.763-2.783-0.988-4.579-0.898
	c0.853,0.763,1.706,1.526,2.469,2.289c0,0,0,0,0.045,0c1.392,1.437,2.963,3.142,4.13,4.893c1.392,2.02,2.065,3.816,2.065,5.477
	c0,0,0,0.09,0,0.18c0,0.045,0,0.135,0,0.135c0,1.661-0.673,3.457-2.065,5.477c-1.167,1.751-2.738,3.457-4.13,4.893
	c-0.045,0-0.045,0-0.045,0.045c-1.437,1.392-3.142,2.963-4.893,4.13l-0.224,0.18c1.033-0.224,2.02-0.449,3.053-0.718
	c4.175-1.167,8.305-2.604,9.741-5.297C36.478,21.807,35.67,17.498,34.593,13.278z"/>
<g>
	<path fill="#26BC9C" d="M104.545,4.905c0.088-0.008,0.168-0.016,0.24-0.024c0.071-0.008,0.143-0.015,0.213-0.021
		c0.069-0.006,0.143-0.011,0.219-0.015s0.16-0.006,0.252-0.006c0.204,0,0.406,0.021,0.606,0.06c0.199,0.04,0.378,0.11,0.533,0.21
		c0.156,0.1,0.283,0.235,0.382,0.405c0.098,0.17,0.146,0.385,0.146,0.645c0,0.156-0.026,0.298-0.078,0.426
		c-0.052,0.128-0.118,0.242-0.197,0.342c-0.08,0.1-0.172,0.187-0.273,0.261c-0.102,0.074-0.201,0.135-0.297,0.183l-0.072,0.036
		l1.254,1.818c-0.107,0.012-0.229,0.018-0.366,0.018c-0.107,0-0.216-0.006-0.323-0.018l-1.38-1.998V7.202l0.048-0.012
		c0.107-0.028,0.222-0.066,0.342-0.114s0.23-0.111,0.333-0.189c0.102-0.078,0.187-0.172,0.255-0.282
		c0.068-0.11,0.102-0.243,0.102-0.399c0-0.288-0.085-0.502-0.255-0.642c-0.17-0.14-0.398-0.21-0.687-0.21
		c-0.068,0-0.131,0.002-0.189,0.006c-0.058,0.004-0.123,0.01-0.194,0.018v3.846c-0.044,0.004-0.094,0.008-0.147,0.012
		c-0.054,0.004-0.104,0.006-0.153,0.006c-0.048,0-0.1-0.001-0.155-0.003c-0.057-0.002-0.108-0.007-0.156-0.015V4.905z"/>
</g>
<g>
	<path fill="#26BC9C" d="M105.861,11.192c-2.326,0-4.219-1.811-4.219-4.036s1.893-4.036,4.219-4.036s4.219,1.811,4.219,4.036
		S108.188,11.192,105.861,11.192z M105.861,3.871c-1.913,0-3.469,1.474-3.469,3.286s1.556,3.286,3.469,3.286
		s3.469-1.474,3.469-3.286S107.774,3.871,105.861,3.871z"/>
</g>
</svg>
